<?xml version="1.0" standalone="no"?>
<!DOCTYPE svg PUBLIC "-//W3C//DTD SVG 20010904//EN"
 "http://www.w3.org/TR/2001/REC-SVG-20010904/DTD/svg10.dtd">
<svg version="1.0" xmlns="http://www.w3.org/2000/svg"
 width="1024.000000pt" height="1024.000000pt" viewBox="0 0 1024.000000 1024.000000"
 preserveAspectRatio="xMidYMid meet">
<metadata>
Created by potrace 1.14, written by Peter Selinger 2001-2017
</metadata>
<g transform="translate(0.000000,1024.000000) scale(0.100000,-0.100000)"
fill="#000000" stroke="none">
<path d="M1500 9463 c-61 -9 -183 -35 -198 -43 -10 -5 -46 -23 -82 -40 -80
-39 -148 -90 -218 -162 -117 -121 -184 -248 -218 -418 -10 -51 -13 -3643 -3
-3718 14 -99 19 -123 31 -146 6 -11 11 -23 11 -26 -2 -21 46 -116 96 -188 57
-84 3709 -3738 3801 -3803 81 -58 190 -106 283 -126 80 -16 243 -23 297 -12
19 4 51 10 70 12 89 13 204 67 305 143 89 67 3588 3569 3645 3647 42 59 104
184 115 232 32 141 38 257 19 377 -23 144 -75 260 -167 370 -87 104 -3683
3697 -3749 3746 -61 45 -140 87 -213 114 -122 45 -129 45 -2014 45 -982 -1
-1797 -2 -1811 -4z m1338 -1098 c241 -50 453 -211 563 -428 85 -165 109 -397
60 -582 -22 -86 -86 -223 -123 -267 -13 -15 -36 -43 -52 -63 -39 -49 -167
-150 -229 -181 -117 -60 -220 -86 -357 -89 -286 -8 -523 110 -694 344 -65 89
-117 210 -133 310 -10 56 -10 251 -1 306 53 318 332 597 653 653 73 13 244 11
313 -3z"/>
</g>
</svg>
