<?xml version="1.0" encoding="utf-8"?>
<!-- Designed by Vexels.com - 2016 All Rights Reserved - https://vexels.com/terms-and-conditions/  -->

<svg version="1.0" id="Capa_1" xmlns="http://www.w3.org/2000/svg" xmlns:xlink="http://www.w3.org/1999/xlink" x="0px" y="0px"
	 width="1200px" height="1199.999px" viewBox="0 0 1200 1199.999" enable-background="new 0 0 1200 1199.999" xml:space="preserve">
<g>
	<defs>
		<path id="SVGID_63_" d="M77.868,448.127c0,7.38-10.671,21.367-13.943,26.257c-3.275,4.933,1.641,5.758,4.942,11.494
			c3.279,5.744-0.835,17.249-1.671,22.987c-0.808,5.741,3.269,8.209,6.571,15.589c3.272,7.398,1.672,13.973,7.392,22.996
			c5.758,9.048-3.292,6.561,0,15.606c3.301,9.029,9.875,9.029,4.934,19.671c-4.934,10.71-4.11,0.842,0,11.516
			c4.078,10.66,17.246,26.255,12.302,37.79c-4.895,11.474-3.272,9.023,6.564,13.111c9.848,4.11,18.896,5.758,20.557,13.153
			c1.604,7.367,3.252,4.09,8.188,6.561c4.944,2.44,2.468,9.023,13.147,9.84c10.664,0.834,4.099,9.026,10.664,18.866
			c6.564,9.874-6.565,13.975,8.205,15.618c14.781,1.659,27.918,6.572,38.602,6.572c10.672,0-0.855,5.747,8.185,9.043
			c9.04,3.254,55.273,35.547,62.953,39.935c7.682,4.377,49.244,8.753,49.244,8.753l16.421,2.187l1.077-13.133l36.134,5.457
			c0,0,8.788,1.112,13.15,8.779c4.391,7.642,7.643,9.837,14.227,14.239c6.58,4.365,9.835,10.949,13.129,21.87
			c3.282,10.929,3.282,13.147,12.031,20.808c8.77,7.687,14.256,16.392,17.518,13.136c3.321-3.285,2.204-14.236,7.661-15.306
			c5.497-1.112,8.748-3.299,17.535-4.388c8.735-1.103,16.387,0,20.794,6.558c4.378,6.572,7.677,8.765,14.215,19.711
			c6.598,10.963,8.758,14.222,13.171,22.987c4.356,8.753,10.929,3.29,14.194,13.124c3.29,9.851,0,13.153,5.486,19.705
			c5.466,6.564,2.198,13.13,14.236,17.504c12.004,4.385,14.217-1.064,20.775,4.385c6.558,5.471,0-5.474,0-20.786
			c0-15.328,3.318-16.415,3.318-24.079c0-7.695,13.119-16.443,22.959-17.504c9.874-1.115,20.786-12.066,26.283-17.527
			c5.472-5.474,20.794-15.331,29.559-15.331c8.782,0,14.208-8.748,21.87-2.19c7.673,6.572,15.337,6.572,19.753,5.502
			c4.346-1.109-1.123-12.061,9.815-8.784c10.938,3.282,6.555,7.675,14.228,12.046c7.695,4.371,13.15,5.469,17.541,2.195
			c4.36-3.273,18.591-8.77,23.012-4.388c4.351,4.388-14.265-26.299-1.134-28.456c13.125-2.204,14.214,2.179,21.853-2.204
			c7.692-4.349,13.178-6.555,16.446-2.178c3.31,4.382,15.334-4.377,25.21-1.092c9.837,3.271,29.531,10.943,35.003,14.214
			c5.477,3.265,10.952-16.403,18.588-14.214c7.715,2.193,9.885,9.868,19.73,14.214c9.848,4.371,18.608,6.586,19.686,17.538
			c1.137,10.921-6.544,16.392,4.379,21.872c10.957,5.488,7.681,4.408,5.469,15.339c-2.179,10.946,5.488,15.328,13.158,19.697
			c7.661,4.371,9.874,9.829,9.874,13.144c0,3.259,12.024,0,12.024,8.75c0,8.77,12.016-7.67,10.935,1.081
			c-1.058,8.753-8.751,15.339-8.751,15.339s18.585-12.035,17.549-25.171c-1.137-13.144-4.421-21.895-5.505-35.045
			c-1.092-13.136-16.423-25.168-18.63-33.899c-2.179-8.784-1.083-10.971-7.622-19.733c-6.592-8.767-20.82-19.691-18.638-32.849
			c2.187-13.107,1.115-35.008,9.857-40.482c8.782-5.477,13.113-16.437,16.403-21.901c3.29-5.486,9.857-2.19,12.066-10.946
			c2.212-8.751,2.212-14.228,7.647-17.515c5.458-3.271,10.918-1.086,13.161-6.566c2.17-5.477,6.536-20.797,15.303-22.987
			c8.79-2.181,15.292-4.371,16.412-8.762c1.075-4.352-9.828-9.86-1.061-14.222c8.756-4.368,13.119-5.494,13.119-10.951
			c0-5.455-10.982-9.837-13.119-20.8c-2.221-10.935-10.963-13.11-13.15-16.415c-2.201-3.288,1.05-8.745,0-13.144
			c-1.106-4.352-6.564-4.352-10.968-9.834c-4.365-5.477-1.067-4.371,2.224-12.055c3.251-7.653,5.438,3.285,10.932,8.762
			c5.449,5.474,5.449,5.474,5.449,14.236c0,8.748-2.178,14.253,3.293,14.253c5.466,0,2.162-5.505,3.282-15.362
			c1.075-9.834,3.282-9.834,6.592-13.127c3.287-3.262-2.215-14.222-2.215-14.222l-10.952-19.708c0,0-1.047-12.019,4.391-8.756
			c5.466,3.287,2.184,7.672,6.561,10.943c4.379,3.273-3.302,9.854,4.379,3.273c7.701-6.544,6.578-6.544,8.765-13.111
			c2.201-6.564,1.117-18.607-4.394-19.713c-5.432-1.086-5.432-6.567-1.07-8.756c4.399-2.176,4.399,0,10.946,0
			c6.544,0,20.789-12.016,22.953-18.599c2.215-6.578,8.759-18.619,18.624-20.808c9.885-2.195,17.552,0,14.23-8.779
			c-3.29-8.751-15.317-7.628-15.317-7.628s-8.779-2.212-5.446-15.334c3.254-13.122,4.332-14.214,4.332-18.605
			c0-4.374,2.201-12.058,7.692-12.058c5.449,0,4.394,2.206,8.739-5.458c4.38-7.672,2.148-10.946,5.452-14.233
			c3.296-3.273,9.868-4.374,13.167-3.273c3.285,1.078,6.575-4.402,12.033-9.857c5.46-5.48,0-14.236,0-14.236
			c-9.832-2.207-16.409-4.371-16.409-12.044c0-7.661-4.374-10.952-5.494-15.323c-1.086-4.38-4.368-17.507-9.848-17.507
			c-5.486,0-4.705,2.058-8.739,4.377c-7.67,4.374-9.837,0-12.01,3.282c-2.246,3.285-4.416,9.848-4.416,9.848s0,2.207,0,8.739
			c0,6.583-3.29,6.583,1.123,15.342c4.379,8.751-4.413,17.521-8.779,21.889c-4.379,4.388-10.412,4.624-14.256,7.65
			c-10.912,8.77-15.3,5.497-24.042,8.77c-8.776,3.293-13.139-1.098-14.214,3.293c-1.131,4.357-6.589,6.567-12.083,5.458
			c-5.474-1.101,0-9.829-5.474-1.101c-5.469,8.765-5.469,7.684-7.658,14.248c-2.184,6.55-14.214,10.949-10.94,14.236
			c3.324,3.259,2.187,0.017,2.187,7.656c0,7.662,7.633,1.073,0,7.662c-7.661,6.578-13.141,7.658-13.141,7.658
			c-6.566,5.469-10.94,7.673-10.94,7.673c-8.751-2.204-8.751-4.368-14.248-2.204c-5.443,2.204-7.622,1.078-9.814,6.578
			c-2.21,5.469-2.21-5.5-2.21,5.469c0,10.935-17.501,21.895-17.501,21.895s-1.112,7.667-5.483,8.745
			c-4.377,1.106-17.493,5.488-18.588,10.963c-1.106,5.477,3.304,6.547-4.413,10.935c-7.633,4.371-14.214,0-14.214,0
			c-10.952-6.564-13.122-6.564-16.423-4.352c-3.288,2.159-8.759,0-8.759-3.298c0-3.285,0.376-8.023,3.29-9.845
			c8.77-5.48,10.94-16.423,10.94-16.423s6.589-3.271,6.589-6.578c0-3.279-5.511-8.737-6.589-13.133
			c-1.081-4.377-0.671-16.123-3.282-13.119c-7.659,8.742-12.049,13.119-12.049,13.119s-10.924,2.181-10.924-2.184
			c0-4.391,0-10.935,0-10.935s0-3.305,4.349-6.598c4.41-3.293,5.489-12.027,5.489-12.027l-4.405-13.133
			c0,0-24.056-10.94-26.241-6.567c-2.201,4.357,1.092,5.483-4.402,10.938c-5.438,5.474-5.005,8.341-7.633,13.127
			c-6.583,12.063-12.041,15.342-7.692,19.713c4.396,4.371,7.692,6.567,5.533,10.952c-2.223,4.371-4.424,6.567-4.424,9.845
			c0,3.307,2.201,4.388,2.201,8.742c0,4.419,4.382,5.497,0,13.15c-4.368,7.67,0,13.147-6.569,16.412
			c-6.609,3.276-5.46,13.13-14.247,6.564c-8.728-6.564-10.904-19.691-10.904-19.691s-2.176,0,0-10.938
			c2.176-10.932-0.036-13.15-1.12-17.518c-1.055-4.368-6.572-12.038-2.19-17.518c4.38-5.455,8.759-8.759,8.759-13.13
			c0-4.374,4.366-16.418,4.366-16.418s-8.745-13.119,0-19.705c8.728-6.583,10.971-7.672,17.537-7.672c6.592,0-7.661,6.586,6.592,0
			c14.194-6.564,14.194-8.754,18.585-7.65c4.337,1.087,9.84,6.567,9.84,6.567l-2.17-19.713c0,0-12.06,7.672-15.337,9.854
			c-3.268,2.19-19.711,0-19.711,0s-4.365-7.658-8.767-2.181c-4.363,5.474-10.935,10.932-10.935,10.932s-8.155-3.709-10.968-5.458
			c-8.748-5.474-25.157-2.181-29.514,0c-4.413,2.195-7.695,3.282-12.072,6.567c-4.383,3.299-16.412-6.802-19.666-6.567
			c-15.342,1.087-10.982-16.432-10.982-16.432s6.567-1.086,12.041-6.544c5.477-5.505,7.65-8.782,10.946-8.782
			c3.279,0,3.279-7.658,3.279-7.658s-22.97,6.564-29.539,5.477c-6.581-1.095-5.497-7.664-14.236-8.751
			c-8.767-1.086-39.402-6.58-40.513-10.954c-1.083-4.38-14.225-2.198-20.791-2.198c-6.555,0-109.426-2.181-109.426-2.181
			s-96.352-4.382-132.493-14.225c-36.114-9.86-211.771-49.253-211.771-49.253l3.223,11.572c0,0-8.196,9.753-3.223,17.99
			l-10.702-5.07c0,0-21.34-11.345-27.897-17.111v12.302c0,0-0.82,21.353,4.114,26.286h-4.173v18.899l-8.985,18.857l-18.895,45.988
			l-9.83,13.133v17.237v8.706"/>
	</defs>
	<clipPath id="SVGID_2_">
		<use xlink:href="#SVGID_63_"  overflow="visible"/>
	</clipPath>
	<g clip-path="url(#SVGID_2_)">
		<g>
			<rect x="535.835" y="257.707" fill="#CB2D38" width="610.278" height="51.089"/>
			<rect x="535.835" y="308.796" fill="#EFDAC9" width="610.278" height="51.064"/>
			<rect x="535.835" y="359.86" fill="#CB2D38" width="610.278" height="51.091"/>
			<rect x="535.835" y="410.951" fill="#EFDAC9" width="610.278" height="51.089"/>
			<rect x="535.835" y="462.04" fill="#CB2D38" width="610.278" height="51.069"/>
			<rect x="535.835" y="513.109" fill="#EFDAC9" width="610.278" height="51.069"/>
			<rect x="535.835" y="564.179" fill="#CB2D38" width="610.278" height="51.089"/>
			<rect x="44.667" y="615.267" fill="#EFDAC9" width="1101.446" height="51.05"/>
			<rect x="44.667" y="666.317" fill="#CB2D38" width="1101.446" height="51.103"/>
			<rect x="44.667" y="717.42" fill="#EFDAC9" width="1101.446" height="51.066"/>
			<rect x="44.667" y="768.486" fill="#CB2D38" width="1101.446" height="51.075"/>
			<rect x="44.667" y="819.561" fill="#EFDAC9" width="1101.446" height="51.075"/>
			<rect x="44.667" y="870.636" fill="#CB2D38" width="1101.446" height="51.081"/>
		</g>
		<rect x="44.667" y="257.707" fill="#002244" width="492.844" height="357.56"/>
		<g>
			<polygon fill="#D8D0B4" points="91.277,552.629 95.801,566.568 110.408,566.568 98.578,575.169 103.106,589.089 91.277,580.484 
				79.451,589.089 83.967,575.169 72.11,566.568 86.773,566.568 			"/>
			<polygon fill="#D8D0B4" points="167.888,552.629 172.39,566.568 187.064,566.568 175.215,575.169 179.734,589.089 
				167.888,580.484 156.066,589.089 160.592,575.169 148.749,566.568 163.381,566.568 			"/>
			<polygon fill="#D8D0B4" points="91.277,485.474 95.801,499.359 110.408,499.359 98.578,507.978 103.106,521.899 91.277,513.298 
				79.451,521.899 83.967,507.978 72.11,499.359 86.773,499.359 			"/>
			<polygon fill="#D8D0B4" points="167.888,485.474 172.39,499.359 187.064,499.359 175.215,507.978 179.734,521.899 
				167.888,513.298 156.066,521.899 160.592,507.978 148.749,499.359 163.381,499.359 			"/>
			<polygon fill="#D8D0B4" points="91.277,418.27 95.801,432.203 110.408,432.203 98.578,440.772 103.106,454.693 91.277,446.108 
				79.451,454.693 83.967,440.772 72.11,432.203 86.773,432.203 			"/>
			<polygon fill="#D8D0B4" points="167.888,418.27 172.39,432.203 187.064,432.203 175.215,440.772 179.734,454.693 
				167.888,446.108 156.066,454.693 160.592,440.772 148.749,432.203 163.381,432.203 			"/>
			<polygon fill="#D8D0B4" points="91.277,351.078 95.801,364.98 110.408,364.98 98.578,373.582 103.106,387.532 91.277,378.899 
				79.451,387.532 83.967,373.582 72.11,364.98 86.773,364.98 			"/>
			<polygon fill="#D8D0B4" points="167.888,351.078 172.39,364.98 187.064,364.98 175.215,373.582 179.734,387.532 167.888,378.899 
				156.066,387.532 160.592,373.582 148.749,364.98 163.381,364.98 			"/>
			<polygon fill="#D8D0B4" points="91.277,283.872 95.801,297.802 110.408,297.802 98.578,306.407 103.106,320.315 91.277,311.71 
				79.451,320.315 83.967,306.407 72.11,297.802 86.773,297.802 			"/>
			<polygon fill="#D8D0B4" points="167.888,283.872 172.39,297.802 187.064,297.802 175.215,306.407 179.734,320.315 
				167.888,311.71 156.066,320.315 160.592,306.407 148.749,297.802 163.381,297.802 			"/>
			<polygon fill="#D8D0B4" points="129.587,519.055 134.111,532.966 148.749,532.966 136.899,541.571 141.426,555.487 
				129.587,546.865 117.759,555.487 122.282,541.571 110.408,532.966 125.06,532.966 			"/>
			<polygon fill="#D8D0B4" points="129.587,451.875 134.111,465.785 148.749,465.785 136.899,474.384 141.426,488.289 
				129.587,479.682 117.759,488.289 122.282,474.384 110.408,465.785 125.06,465.785 			"/>
			<polygon fill="#D8D0B4" points="129.587,384.657 134.111,398.593 148.749,398.593 136.899,407.175 141.426,421.089 
				129.587,412.49 117.759,421.089 122.282,407.175 110.408,398.593 125.06,398.593 			"/>
			<polygon fill="#D8D0B4" points="129.587,317.477 134.111,331.384 148.749,331.384 136.899,340.009 141.426,353.914 
				129.587,345.323 117.759,353.914 122.282,340.009 110.408,331.384 125.06,331.384 			"/>
			<polygon fill="#D8D0B4" points="248.631,552.629 253.156,566.568 267.779,566.568 255.942,575.169 260.449,589.089 
				248.631,580.484 236.809,589.089 241.338,575.169 229.491,566.568 244.144,566.568 			"/>
			<polygon fill="#D8D0B4" points="248.631,485.474 253.156,499.359 267.779,499.359 255.942,507.978 260.449,521.899 
				248.631,513.298 236.809,521.899 241.338,507.978 229.491,499.359 244.144,499.359 			"/>
			<polygon fill="#D8D0B4" points="248.631,418.27 253.156,432.203 267.779,432.203 255.942,440.772 260.449,454.693 
				248.631,446.108 236.809,454.693 241.338,440.772 229.491,432.203 244.144,432.203 			"/>
			<polygon fill="#D8D0B4" points="248.631,351.078 253.156,364.98 267.779,364.98 255.942,373.582 260.449,387.532 
				248.631,378.899 236.809,387.532 241.338,373.582 229.491,364.98 244.144,364.98 			"/>
			<polygon fill="#D8D0B4" points="248.631,283.872 253.156,297.802 267.779,297.802 255.942,306.407 260.449,320.315 
				248.631,311.71 236.809,320.315 241.338,306.407 229.491,297.802 244.144,297.802 			"/>
			<polygon fill="#D8D0B4" points="210.33,519.055 214.857,532.966 229.491,532.966 217.653,541.571 222.187,555.487 
				210.33,546.865 198.486,555.487 203.01,541.571 191.192,532.966 205.806,532.966 			"/>
			<polygon fill="#D8D0B4" points="210.33,451.875 214.857,465.785 229.491,465.785 217.653,474.384 222.187,488.289 
				210.33,479.682 198.486,488.289 203.01,474.384 191.192,465.785 205.806,465.785 			"/>
			<polygon fill="#D8D0B4" points="210.33,384.657 214.857,398.593 229.491,398.593 217.653,407.175 222.187,421.089 210.33,412.49 
				198.486,421.089 203.01,407.175 191.192,398.593 205.806,398.593 			"/>
			<polygon fill="#D8D0B4" points="210.33,317.477 214.857,331.384 229.491,331.384 217.653,340.009 222.187,353.914 
				210.33,345.323 198.486,353.914 203.01,340.009 191.192,331.384 205.806,331.384 			"/>
			<polygon fill="#D8D0B4" points="329.403,552.629 333.917,566.568 348.542,566.568 336.708,575.169 341.232,589.089 
				329.403,580.484 317.557,589.089 322.084,575.169 310.245,566.568 324.877,566.568 			"/>
			<polygon fill="#D8D0B4" points="329.403,485.474 333.917,499.359 348.542,499.359 336.708,507.978 341.232,521.899 
				329.403,513.298 317.557,521.899 322.084,507.978 310.245,499.359 324.877,499.359 			"/>
			<polygon fill="#D8D0B4" points="329.403,418.27 333.917,432.203 348.542,432.203 336.708,440.772 341.232,454.693 
				329.403,446.108 317.557,454.693 322.084,440.772 310.245,432.203 324.877,432.203 			"/>
			<polygon fill="#D8D0B4" points="329.403,351.078 333.917,364.98 348.542,364.98 336.708,373.582 341.232,387.532 
				329.403,378.899 317.557,387.532 322.084,373.582 310.245,364.98 324.877,364.98 			"/>
			<polygon fill="#D8D0B4" points="329.403,283.872 333.917,297.802 348.542,297.802 336.708,306.407 341.232,320.315 
				329.403,311.71 317.557,320.315 322.084,306.407 310.245,297.802 324.877,297.802 			"/>
			<polygon fill="#D8D0B4" points="291.076,519.055 295.609,532.966 310.245,532.966 298.418,541.571 302.942,555.487 
				291.076,546.865 279.267,555.487 283.769,541.571 271.955,532.966 286.579,532.966 			"/>
			<polygon fill="#D8D0B4" points="291.076,451.875 295.609,465.785 310.245,465.785 298.418,474.384 302.942,488.289 
				291.076,479.682 279.267,488.289 283.769,474.384 271.955,465.785 286.579,465.785 			"/>
			<polygon fill="#D8D0B4" points="291.076,384.657 295.609,398.593 310.245,398.593 298.418,407.175 302.942,421.089 
				291.076,412.49 279.267,421.089 283.769,407.175 271.955,398.593 286.579,398.593 			"/>
			<polygon fill="#D8D0B4" points="291.076,317.477 295.609,331.384 310.245,331.384 298.418,340.009 302.942,353.914 
				291.076,345.323 279.267,353.914 283.769,340.009 271.955,331.384 286.579,331.384 			"/>
			<polygon fill="#D8D0B4" points="410.167,552.629 414.691,566.568 429.316,566.568 417.498,575.169 421.985,589.089 
				410.167,580.484 398.302,589.089 402.825,575.169 391.018,566.568 405.633,566.568 			"/>
			<polygon fill="#D8D0B4" points="410.167,485.474 414.691,499.359 429.316,499.359 417.498,507.978 421.985,521.899 
				410.167,513.298 398.302,521.899 402.825,507.978 391.018,499.359 405.633,499.359 			"/>
			<polygon fill="#D8D0B4" points="410.167,418.27 414.691,432.203 429.316,432.203 417.498,440.772 421.985,454.693 
				410.167,446.108 398.302,454.693 402.825,440.772 391.018,432.203 405.633,432.203 			"/>
			<polygon fill="#D8D0B4" points="410.167,351.078 414.691,364.98 429.316,364.98 417.498,373.582 421.985,387.532 
				410.167,378.899 398.302,387.532 402.825,373.582 391.018,364.98 405.633,364.98 			"/>
			<polygon fill="#D8D0B4" points="410.167,283.872 414.691,297.802 429.316,297.802 417.498,306.407 421.985,320.315 
				410.167,311.71 398.302,320.315 402.825,306.407 391.018,297.802 405.633,297.802 			"/>
			<polygon fill="#D8D0B4" points="371.82,519.055 376.344,532.966 391.018,532.966 379.161,541.571 383.677,555.487 
				371.82,546.865 360.003,555.487 364.546,541.571 352.679,532.966 367.345,532.966 			"/>
			<polygon fill="#D8D0B4" points="371.82,451.875 376.344,465.785 391.018,465.785 379.161,474.384 383.677,488.289 
				371.82,479.682 360.003,488.289 364.546,474.384 352.679,465.785 367.345,465.785 			"/>
			<polygon fill="#D8D0B4" points="371.82,384.657 376.344,398.593 391.018,398.593 379.161,407.175 383.677,421.089 371.82,412.49 
				360.003,421.089 364.546,407.175 352.679,398.593 367.345,398.593 			"/>
			<polygon fill="#D8D0B4" points="371.82,317.477 376.344,331.384 391.018,331.384 379.161,340.009 383.677,353.914 
				371.82,345.323 360.003,353.914 364.546,340.009 352.679,331.384 367.345,331.384 			"/>
			<polygon fill="#D8D0B4" points="490.902,552.629 495.426,566.568 510.061,566.568 498.231,575.169 502.759,589.089 
				490.902,580.484 479.045,589.089 483.573,575.169 471.751,566.568 486.375,566.568 			"/>
			<polygon fill="#D8D0B4" points="490.902,485.474 495.426,499.359 510.061,499.359 498.231,507.978 502.759,521.899 
				490.902,513.298 479.045,521.899 483.573,507.978 471.751,499.359 486.375,499.359 			"/>
			<polygon fill="#D8D0B4" points="490.902,418.27 495.426,432.203 510.061,432.203 498.231,440.772 502.759,454.693 
				490.902,446.108 479.045,454.693 483.573,440.772 471.751,432.203 486.375,432.203 			"/>
			<polygon fill="#D8D0B4" points="490.902,351.078 495.426,364.98 510.061,364.98 498.231,373.582 502.759,387.532 
				490.902,378.899 479.045,387.532 483.573,373.582 471.751,364.98 486.375,364.98 			"/>
			<polygon fill="#D8D0B4" points="490.902,283.872 495.426,297.802 510.061,297.802 498.231,306.407 502.759,320.315 
				490.902,311.71 479.045,320.315 483.573,306.407 471.751,297.802 486.375,297.802 			"/>
			<polygon fill="#D8D0B4" points="452.612,519.055 457.137,532.966 471.751,532.966 459.904,541.571 464.427,555.487 
				452.612,546.865 440.755,555.487 445.29,541.571 433.443,532.966 448.106,532.966 			"/>
			<polygon fill="#D8D0B4" points="452.612,451.875 457.137,465.785 471.751,465.785 459.904,474.384 464.427,488.289 
				452.612,479.682 440.755,488.289 445.29,474.384 433.443,465.785 448.106,465.785 			"/>
			<polygon fill="#D8D0B4" points="452.612,384.657 457.137,398.593 471.751,398.593 459.904,407.175 464.427,421.089 
				452.612,412.49 440.755,421.089 445.29,407.175 433.443,398.593 448.106,398.593 			"/>
			<polygon fill="#D8D0B4" points="452.612,317.477 457.137,331.384 471.751,331.384 459.904,340.009 464.427,353.914 
				452.612,345.323 440.755,353.914 445.29,340.009 433.443,331.384 448.106,331.384 			"/>
		</g>
	</g>
</g>
</svg>
