<svg xmlns="http://www.w3.org/2000/svg" style="background: none;" preserveAspectRatio="xMidYMid" viewBox="153.43 50.91 193.15 49.99"><defs><filter id="editing-hover" x="-100%" y="-100%" width="300%" height="300%"><feFlood flood-color="none" result="flood"></feFlood><feComposite operator="in" in2="SourceAlpha" in="flood" result="shadow"></feComposite><feOffset dx="0.1" dy="0.1" in="SourceGraphic" result="offset-1"></feOffset><feOffset dx="-0.1" dy="-0.1" in="shadow" result="offset-2"></feOffset><feMerge><feMergeNode in="offset-2"></feMergeNode><feMergeNode in="offset-1"></feMergeNode></feMerge></filter></defs><g filter="url(#editing-hover)"><g transform="translate(152.20501828193665, 99.9950008392334)"><path d="M9.34-46.08L27.90-46.08L27.90-46.08Q35.20-46.08 38.27-42.88L38.27-42.88L38.27-42.88Q40.58-40.45 40.58-36.74L40.58-36.74L40.58-36.74Q40.58-35.46 40.32-34.05L40.32-34.05L39.74-30.98L39.74-30.98Q39.04-27.33 37.02-25.28L37.02-25.28L37.02-25.28Q35.01-23.23 33.47-23.23L33.47-23.23L33.41-22.72L33.41-22.72Q35.20-22.72 37.06-20.74L37.06-20.74L37.06-20.74Q38.91-18.75 38.91-16.06L38.91-16.06L38.91-16.06Q38.91-14.98 38.66-13.76L38.66-13.76L38.27-11.78L38.27-11.78Q37.25-6.27 33.38-3.14L33.38-3.14L33.38-3.14Q29.50 0 22.59 0L22.59 0L1.22 0L9.34-46.08ZM22.14-18.82L22.14-18.82L16.06-18.82L14.53-9.98L20.61-9.98L20.61-9.98Q20.74-9.98 20.86-9.98L20.86-9.98L20.86-9.98Q23.81-9.98 25.54-11.36L25.54-11.36L25.54-11.36Q27.26-12.74 27.26-14.72L27.26-14.72L27.26-14.72Q27.26-18.82 22.14-18.82ZM23.87-36.10L23.87-36.10L19.07-36.10L17.41-26.56L22.14-26.56L22.14-26.56Q28.29-26.56 28.29-31.94L28.29-31.94L28.29-31.94Q28.29-33.79 27.17-34.94L27.17-34.94L27.17-34.94Q26.05-36.10 23.87-36.10ZM56.96-8.19L56.96-8.19L56.96-8.19Q58.43-8.19 59.58-8.83L59.58-8.83L59.26-1.60L59.26-1.60Q56.26 0.90 52.42 0.90L52.42 0.90L52.42 0.90Q46.59 0.90 44.86-1.79L44.86-1.79L44.86-1.79Q43.71-3.58 43.71-5.60L43.71-5.60L43.71-5.60Q43.71-7.62 43.97-9.15L43.97-9.15L47.81-30.78L58.69-30.78L55.10-10.62L55.10-10.62Q55.04-10.24 55.04-9.92L55.04-9.92L55.04-9.92Q55.04-8.19 56.96-8.19ZM49.09-41.22L49.09-41.22L49.09-41.22Q49.09-45.31 50.91-47.20L50.91-47.20L50.91-47.20Q52.74-49.09 56.58-49.09L56.58-49.09L56.58-49.09Q61.95-49.09 61.95-44.35L61.95-44.35L61.95-44.35Q61.95-40.32 60.13-38.46L60.13-38.46L60.13-38.46Q58.30-36.61 54.40-36.61L54.40-36.61L54.40-36.61Q49.09-36.61 49.09-41.22ZM94.14-8.19L94.14-8.19L94.14-8.19Q95.62-8.19 96.77-8.83L96.77-8.83L96.45-1.60L96.45-1.60Q93.44 0.90 89.09 0.90L89.09 0.90L89.09 0.90Q84.74 0.90 82.66-1.41L82.66-1.41L82.66-1.41Q80.58-3.71 79.42-9.15L79.42-9.15L79.23-10.05L79.23-10.05Q77.89-9.86 75.20-9.73L75.20-9.73L73.47 0L62.59 0L71.17-48.58L82.05-48.58L78.34-27.52L78.34-27.52Q82.11-31.68 88.58-31.68L88.58-31.68L88.58-31.68Q92.93-31.68 95.01-29.54L95.01-29.54L95.01-29.54Q97.09-27.39 97.09-23.81L97.09-23.81L97.09-23.81Q97.09-16.90 89.86-12.99L89.86-12.99L90.56-10.62L90.56-10.62Q91.26-8.19 94.14-8.19ZM83.07-22.98L83.07-22.98L83.07-22.98Q79.62-22.98 76.93-19.71L76.93-19.71L76.22-15.49L76.22-15.49Q85.70-15.87 85.70-20.54L85.70-20.54L85.70-20.54Q85.70-21.63 85.02-22.30L85.02-22.30L85.02-22.30Q84.35-22.98 83.07-22.98ZM114.94 0.90L114.94 0.90L114.94 0.90Q101.63 0.90 101.63-8.32L101.63-8.32L101.63-8.32Q101.63-9.60 101.89-11.07L101.89-11.07L103.23-19.01L103.23-19.01Q104.32-25.15 108.90-28.45L108.90-28.45L108.90-28.45Q113.47-31.74 121.02-31.74L121.02-31.74L121.02-31.74Q133.89-31.74 133.89-22.02L133.89-22.02L133.89-22.02Q133.89-20.61 133.63-18.94L133.63-18.94L132.86-14.40L113.34-14.40L113.09-12.93L113.09-12.93Q112.96-12.16 112.96-11.52L112.96-11.52L112.96-11.52Q112.96-8 117.12-8L117.12-8L117.12-8Q118.66-8 119.74-8.96L119.74-8.96L119.74-8.96Q120.83-9.92 121.02-11.20L121.02-11.20L131.65-11.07L131.65-11.07Q129.54 0.90 114.94 0.90ZM113.98-18.30L122.62-18.30L122.62-18.30Q122.88-19.39 122.88-20.32L122.88-20.32L122.88-20.32Q122.88-21.25 122.05-22.21L122.05-22.21L122.05-22.21Q121.22-23.17 119.39-23.17L119.39-23.17L119.39-23.17Q117.57-23.17 116.06-21.95L116.06-21.95L116.06-21.95Q114.56-20.74 113.98-18.30L113.98-18.30ZM170.43-26.88L168.70-16.90L151.68-16.90L148.74 0L137.15 0L145.28-46.08L177.41-46.08L175.62-36.10L155.01-36.10L153.41-26.88L170.43-26.88ZM189.38-8.19L189.38-8.19L189.38-8.19Q190.85-8.19 192-8.83L192-8.83L191.68-1.60L191.68-1.60Q188.67 0.90 184.83 0.90L184.83 0.90L184.83 0.90Q179.01 0.90 177.28-1.79L177.28-1.79L177.28-1.79Q176.13-3.58 176.13-5.60L176.13-5.60L176.13-5.60Q176.13-7.62 176.38-9.15L176.38-9.15L180.22-30.78L191.10-30.78L187.52-10.62L187.52-10.62Q187.46-10.24 187.46-9.92L187.46-9.92L187.46-9.92Q187.46-8.19 189.38-8.19ZM181.50-41.22L181.50-41.22L181.50-41.22Q181.50-45.31 183.33-47.20L183.33-47.20L183.33-47.20Q185.15-49.09 188.99-49.09L188.99-49.09L188.99-49.09Q194.37-49.09 194.37-44.35L194.37-44.35L194.37-44.35Q194.37-40.32 192.54-38.46L192.54-38.46L192.54-38.46Q190.72-36.61 186.82-36.61L186.82-36.61L186.82-36.61Q181.50-36.61 181.50-41.22Z" fill="#ffffff"></path></g></g><style>text {   font-size: 64px;   font-family: Arial Black;   dominant-baseline: central;   text-anchor: middle; }</style></svg>